<svg xmlns="http://www.w3.org/2000/svg" fill="currentColor"
    viewBox="0 0 15.141 15.141">
    <g transform="translate(0 -0.786)">
        <path
            d="M40.977,13.242A2.383,2.383,0,0,1,38.6,15.623H30.545a2.383,2.383,0,0,1-2.381-2.381V5.191a2.383,2.383,0,0,1,2.381-2.381h3.721V1.646H30.545A3.549,3.549,0,0,0,27,5.191v8.051a3.549,3.549,0,0,0,3.545,3.545H38.6a3.549,3.549,0,0,0,3.545-3.545V9.217H40.977Z"
            transform="translate(-27 -0.86)" />
        <path d="M3.284,0V3.283H0V6.156H3.284V9.44H6.157V6.156H9.44V3.283H6.157V0Z"
            transform="translate(3.746 2.587)" />
    </g>
</svg>