<?xml version="1.0" encoding="UTF-8"?>
<svg fill="currentColor" id="Layer_1" data-name="Layer 1" xmlns="http://www.w3.org/2000/svg" viewBox="0 0 21.63 21.77">
  <path class="cls-1" d="M19.57,16.81c0,1.84-1.5,3.33-3.33,3.33H4.96c-1.84,0-3.33-1.5-3.33-3.33V5.54c0-1.84,1.5-3.33,3.33-3.33h5.21V.57h-5.21C2.23.57,0,2.8,0,5.54v11.27c0,2.74,2.23,4.96,4.96,4.96h11.27c2.74,0,4.96-2.23,4.96-4.96v-5.64h-1.63v5.64Z"/>
  <polygon class="cls-1" points="3.64 16.77 17.61 16.77 17.56 15.16 3.59 15.16 3.64 16.77"/>
  <path class="cls-1" d="M8.6,7.16H3.59l.05,1.62h5.42c-.22-.51-.37-1.06-.47-1.62Z"/>
  <path class="cls-1" d="M3.64,12.77h9.77c-1.02-.34-1.93-.9-2.69-1.62H3.59l.05,1.62Z"/>
  <path class="cls-1" d="M11.48,10.16c2.32,2.32,6.09,2.32,8.42,0,2.18-2.18,2.31-5.63.4-7.97l-4.44,4.43,3.97.31.16,1.18-7.51,1.04,1.05-7.5,1.18.16.3,3.97,4.44-4.43c-2.34-1.92-5.79-1.78-7.97.4-2.32,2.32-2.32,6.09,0,8.41Z"/>
</svg>