<svg version="1.1" id="Layer_1" fill="currentColor" xmlns="http://www.w3.org/2000/svg" xmlns:xlink="http://www.w3.org/1999/xlink" x="0px" y="0px"
	 viewBox="0 0 21.6 21.6" style="enable-background:new 0 0 21.6 21.6;" xml:space="preserve">
<g>
	<path d="M19.9,10.8v5.7c0,1.9-1.5,3.4-3.4,3.4H5c-1.9,0-3.4-1.5-3.4-3.4V5.1c0-1.9,1.5-3.4,3.4-3.4h5.3V0H5C2.3,0,0,2.3,0,5v11.5
		c0,2.8,2.3,5,5,5h11.5c2.8,0,5-2.3,5-5v-5.7L19.9,10.8L19.9,10.8z"/>
	<polygon points="8.4,3.4 6.1,3.1 4.1,17.5 18.5,15.5 18.2,13.2 10.6,12.7 18.7,4.6 17,2.9 9,11 	"/>
</g>
</svg>
