<svg xmlns="http://www.w3.org/2000/svg" viewBox="0 0 15.887 15.928"
     fill="currentColor">
  <g id="Group_940" data-name="Group 940" transform="translate(0 0)">
    <path id="Path_3618" data-name="Path 3618"
      d="M40.8,2.119l-.584-.589a1.913,1.913,0,0,0-2.7,0L36.379,2.647l3.255,3.289,1.132-1.117a1.907,1.907,0,0,0,.031-2.7"
      transform="translate(-25.455 -0.971)" />
    <path id="Path_3619" data-name="Path 3619"
      d="M29.454,13.5l4.654-1.343,5.833-5.756L36.686,3.117,30.853,8.873Z"
      transform="translate(-26.596 -0.618)" />
    <path id="Path_3620" data-name="Path 3620"
      d="M40.977,13.242A2.383,2.383,0,0,1,38.6,15.623H30.545a2.383,2.383,0,0,1-2.381-2.381V5.191a2.383,2.383,0,0,1,2.381-2.381h3.721V1.646H30.545A3.549,3.549,0,0,0,27,5.191v8.051a3.549,3.549,0,0,0,3.545,3.545H38.6a3.549,3.549,0,0,0,3.545-3.545V9.217H40.977Z"
      transform="translate(-27 -0.86)" />
  </g>
</svg>