<svg version="1.1" id="Layer_1" fill="currentColor" xmlns="http://www.w3.org/2000/svg" xmlns:xlink="http://www.w3.org/1999/xlink" x="0px" y="0px"
	 viewBox="0 0 33.7 33.1" style="enable-background:new 0 0 33.7 33.1;" xml:space="preserve">
<g>
	<path d="M22.4,19.5l-4.4,4.4l8.4,8.4c1.2,1.2,3.1,1.2,4.4,0c1.2-1.2,1.2-3.1,0-4.4L22.4,19.5z M28.6,29.9c-0.3,0.3-0.8,0.3-1.1,0
		L22.6,25c-0.3-0.3-0.3-0.8,0-1.1c0.3-0.3,0.8-0.3,1.1,0l4.9,4.9C28.9,29.1,28.9,29.6,28.6,29.9z"/>
	<path d="M25.1,17.1c4.7,0,8.6-3.8,8.6-8.6c0,0,0-0.1,0-0.1h-1.8l-1.7,1.7c-1.8,1.8-4.8,1.8-6.7,0s-1.8-4.8,0-6.7l1.9-1.9V0
		c-0.1,0-0.2,0-0.3,0c-4.7,0-8.6,3.8-8.6,8.6c0,0.6,0.1,1.1,0.2,1.7L2.1,24.9c-1.8,1.8-1.8,4.8,0,6.7s4.8,1.8,6.7,0l14.6-14.6
		C24,17.1,24.5,17.1,25.1,17.1z M5.5,30c-1,0-1.7-0.8-1.7-1.7s0.8-1.7,1.7-1.7s1.7,0.8,1.7,1.7S6.4,30,5.5,30z M19.6,16.9l-8.2,8.2
		c-0.8,0.8-2,0.8-2.8,0s-0.8-2,0-2.8l8.2-8.2c0.8-0.8,2-0.8,2.8,0C20.3,14.9,20.3,16.1,19.6,16.9z"/>
	<polygon points="6,10 6,10 10.7,14.7 13.3,12.1 8.6,7.4 7,4.9 2.6,1.4 0,4 3.5,8.4 	"/>
</g>
</svg>
