<svg version="1.1" id="Layer_1" fill="currentColor" xmlns="http://www.w3.org/2000/svg" xmlns:xlink="http://www.w3.org/1999/xlink" x="0px" y="0px"
	 viewBox="0 0 24.6 24.3" style="enable-background:new 0 0 24.6 24.3;" xml:space="preserve">
<g>
	<path d="M7.1,13c0,0.4,0.1,0.8,0.4,1.1l0.7,0.7l-4.1,5.7l5.7-4.1l0.7,0.7c0.3,0.3,0.8,0.5,1.2,0.4c0.3,0,0.6-0.2,0.8-0.4l5.3-5.3
		l6.8-3.3l-4.2-4.2L16.1,0l-3.3,6.8L7.5,12C7.2,12.3,7.1,12.7,7.1,13z"/>
	<path d="M19.9,19.2c0,1.9-1.5,3.4-3.4,3.4H5c-1.9,0-3.4-1.5-3.4-3.4V7.8c0-1.9,1.5-3.4,3.4-3.4h5.3V2.7H5c-2.8,0-5,2.3-5,5v11.5
		c0,2.8,2.3,5,5,5h11.5c2.8,0,5-2.3,5-5v-5.7h-1.7V19.2z"/>
</g>
</svg>
