<svg xmlns="http://www.w3.org/2000/svg" xmlns:xlink="http://www.w3.org/1999/xlink"
     viewBox="0 0 38.423 40.036" fill="currentColor">
    <g transform="translate(0 0.002)">
        <g transform="translate(0 -0.002)" clip-path="url(#a)">
            <path d="M24.418,70.9a19.212,19.212,0,1,1-19.01,31.855.215.215,0,0,0-.368.149v2.38a.213.213,0,0,1-.212.212H.986a.214.214,0,0,1-.214-.212V95.038a.214.214,0,0,1,.214-.214H11.232a.214.214,0,0,1,.212.214V98.88a.213.213,0,0,1-.212.212H8.315a.214.214,0,0,0-.156.358A14.943,14.943,0,1,0,24.287,75.34a.215.215,0,0,1-.141-.2V71.1a.208.208,0,0,1,.086-.169.2.2,0,0,1,.187-.035M14.136,75.34a14.923,14.923,0,0,0-4,2.186.211.211,0,0,1-.287-.025L7.271,74.639a.206.206,0,0,1-.055-.161.216.216,0,0,1,.081-.151,19.127,19.127,0,0,1,5.8-3.146.2.2,0,0,1,.169.015.2.2,0,0,1,.106.134l.9,3.6a.175.175,0,0,1,.008.05v.164a.215.215,0,0,1-.141.2m-6.068,4.1a14.945,14.945,0,0,0-2.481,3.812.213.213,0,0,1-.267.113L1.7,82.049a.208.208,0,0,1-.124-.116.218.218,0,0,1,0-.169,19.24,19.24,0,0,1,3.6-5.479.208.208,0,0,1,.156-.068.2.2,0,0,1,.156.071l2.584,2.869a.212.212,0,0,1,0,.285M4.677,85.922A14.891,14.891,0,0,0,4.268,89.4c0,.333.013.663.033.991a.213.213,0,0,1-.184.224l-3.812.537A.213.213,0,0,1,.141,91.1a.2.2,0,0,1-.078-.151Q0,90.184,0,89.4a19.275,19.275,0,0,1,.63-4.9.217.217,0,0,1,.28-.146l3.63,1.324a.211.211,0,0,1,.136.25"
                  transform="translate(0 -68.571)" />
            <path d="M508.429,0h3.494a.855.855,0,0,1,.852.855V15.7a.855.855,0,0,1-.852.855h-3.494a.855.855,0,0,1-.852-.855V.853A.855.855,0,0,1,508.429,0"
                  transform="translate(-490.965 0.002)" />
        </g>
    </g>
</svg>