<svg xmlns="http://www.w3.org/2000/svg" xmlns:xlink="http://www.w3.org/1999/xlink"
     viewBox="0 0 16.066 16.741" fill="currentColor">
    <g transform="translate(0 0.002)">
        <g transform="translate(0 -0.002)" clip-path="url(#a)">
            <path d="M10.21,70.895a8.034,8.034,0,1,1-7.949,13.32.09.09,0,0,0-.154.062v1a.089.089,0,0,1-.089.089H.412a.089.089,0,0,1-.09-.089V80.988a.09.09,0,0,1,.09-.09H4.7a.089.089,0,0,1,.089.09v1.607a.089.089,0,0,1-.089.089H3.477a.09.09,0,0,0-.065.15,6.248,6.248,0,1,0,6.744-10.082.09.09,0,0,1-.059-.084V70.98a.087.087,0,0,1,.036-.071.084.084,0,0,1,.078-.015m-4.3,1.856a6.24,6.24,0,0,0-1.673.914.088.088,0,0,1-.12-.011l-1.077-1.2a.086.086,0,0,1-.023-.067.09.09,0,0,1,.034-.063,8,8,0,0,1,2.427-1.316.083.083,0,0,1,.071.006.084.084,0,0,1,.044.056l.374,1.5a.073.073,0,0,1,0,.021v.069a.09.09,0,0,1-.059.084M3.374,74.467a6.249,6.249,0,0,0-1.037,1.594.089.089,0,0,1-.112.047L.711,75.557a.087.087,0,0,1-.052-.048.091.091,0,0,1,0-.071,8.045,8.045,0,0,1,1.5-2.291.087.087,0,0,1,.065-.028.085.085,0,0,1,.065.03l1.081,1.2a.089.089,0,0,1,0,.119M1.956,77.176a6.226,6.226,0,0,0-.171,1.453c0,.139.005.277.014.414a.089.089,0,0,1-.077.094l-1.594.225a.089.089,0,0,1-.069-.019.085.085,0,0,1-.033-.063Q0,78.958,0,78.629a8.06,8.06,0,0,1,.264-2.049.091.091,0,0,1,.117-.061l1.518.553a.088.088,0,0,1,.057.1"
                  transform="translate(0 -69.921)"/>
        </g>
    </g>
</svg>