<svg version="1.1" fill="currentColor" id="Layer_1" xmlns="http://www.w3.org/2000/svg" xmlns:xlink="http://www.w3.org/1999/xlink"
	 viewBox="0 0 34.1 34.1" style="enable-background:new 0 0 34.1 34.1;" xml:space="preserve">

<path d="M29.1,20.3c0.1-0.4,0.2-0.9,0.3-1.3c0-0.1,0.1-0.2,0.2-0.2l4.6-0.7v-2l-4.6-0.7c-0.1,0-0.2-0.1-0.2-0.3
	c-0.1-0.4-0.2-0.9-0.3-1.3c-0.1-0.4-0.2-0.9-0.4-1.3c-0.1-0.1,0-0.2,0.1-0.3l3.6-2.9l-1-1.7L27,9.4c-0.1,0-0.2,0-0.3-0.1
	c-0.3-0.3-0.6-0.7-0.9-1c-0.3-0.3-0.6-0.6-1-0.9c-0.1-0.1-0.1-0.2-0.1-0.3l1.7-4.3l-1.7-1l-2.9,3.6c-0.1,0.1-0.2,0.1-0.3,0.1
	c-0.4-0.1-0.8-0.3-1.2-0.4C19.8,5,19.4,4.9,19,4.8c-0.1,0-0.2-0.1-0.2-0.2L18.1,0h-2l-0.7,4.6c0,0.1-0.1,0.2-0.3,0.2
	c-0.4,0.1-0.9,0.2-1.3,0.3c-0.4,0.1-0.9,0.2-1.3,0.4c-0.1,0-0.2,0-0.3-0.1L9.4,1.8l-1.7,1l1.7,4.3c0.1,0.1,0,0.2-0.1,0.3
	C8.9,7.7,8.6,8,8.3,8.3C8,8.6,7.7,8.9,7.4,9.3C7.3,9.4,7.2,9.4,7.1,9.3L2.8,7.6l-1,1.7l3.6,2.9c0.1,0.1,0.1,0.2,0.1,0.3
	c-0.1,0.4-0.3,0.8-0.4,1.2c-0.1,0.4-0.2,0.9-0.3,1.3c0,0.1-0.1,0.2-0.2,0.2L0,16v1v1l4.6,0.7c0.1,0,0.2,0.1,0.2,0.2
	c0.1,0.4,0.2,0.9,0.3,1.3c0.1,0.4,0.2,0.9,0.4,1.3c0,0.1,0,0.2-0.1,0.3l-3.6,2.9l1,1.7l4.3-1.7c0.1,0,0.2,0,0.3,0.1
	c0.3,0.3,0.6,0.7,0.9,1c0.3,0.3,0.6,0.6,1,0.9c0.1,0.1,0.1,0.2,0.1,0.3l-1.7,4.3l1.7,1l2.9-3.6c0.1-0.1,0.2-0.1,0.3-0.1
	c0.4,0.1,0.8,0.3,1.2,0.4s0.9,0.2,1.3,0.3c0.1,0,0.2,0.1,0.2,0.2l0.7,4.6h2l0.7-4.6c0-0.1,0.1-0.2,0.2-0.2c0.4-0.1,0.9-0.2,1.3-0.3
	c0.4-0.1,0.9-0.2,1.3-0.4c0.1,0,0.2,0,0.3,0.1l2.9,3.6l1.7-1L24.8,27c-0.1-0.1,0-0.2,0.1-0.3c0.3-0.3,0.7-0.6,1-0.9
	c0.3-0.3,0.6-0.6,0.9-1c0.1-0.1,0.2-0.1,0.3-0.1l4.3,1.7l1-1.7l-3.6-2.9c-0.1-0.1-0.1-0.2-0.1-0.3C28.8,21.1,28.9,20.7,29.1,20.3z
	 M26.8,16.6h-1.9c-0.1-1.8-0.8-3.4-1.9-4.7l1.4-1.4C25.7,12.2,26.6,14.3,26.8,16.6z M17.1,23.9c-3.8,0-6.9-3.1-6.9-6.9
	s3.1-6.9,6.9-6.9s6.9,3.1,6.9,6.9S20.8,23.9,17.1,23.9z M23.6,9.9l-1.4,1.4c-1.3-1.1-2.9-1.8-4.7-2V7.4C19.9,7.5,22,8.4,23.6,9.9z
	 M16.6,7.4v1.9c-1.8,0.1-3.4,0.8-4.7,2l-1.4-1.4C12.2,8.4,14.3,7.5,16.6,7.4z M9.9,10.6l1.4,1.4c-1.1,1.3-1.8,2.9-1.9,4.7H7.4
	C7.5,14.3,8.4,12.2,9.9,10.6z M7.4,17.6h1.9c0.1,1.8,0.8,3.4,1.9,4.7l-1.4,1.4C8.4,22,7.5,19.9,7.4,17.6z M10.5,24.3l1.4-1.4
	c1.3,1.1,2.9,1.8,4.7,2v1.9C14.3,26.7,12.2,25.7,10.5,24.3z M17.5,26.8v-1.9c1.8-0.1,3.4-0.8,4.7-2l1.4,1.4
	C22,25.7,19.9,26.7,17.5,26.8z M24.3,23.6l-1.4-1.4c1.1-1.3,1.8-2.9,1.9-4.7h1.9C26.6,19.9,25.7,22,24.3,23.6z"/>
</svg>
