<svg xmlns="http://www.w3.org/2000/svg" xmlns:xlink="http://www.w3.org/1999/xlink"
     viewBox="0 0 38.513 40.13" fill="currentColor">

    <g clip-path="url(#a)">
        <path d="M24.475,70.9a.2.2,0,0,0-.187.035.208.208,0,0,0-.086.169v4.043a.215.215,0,0,0,.142.2,14.978,14.978,0,1,1-10.174,0,.215.215,0,0,0,.142-.2V71.106a.208.208,0,0,0-.086-.169.2.2,0,0,0-.187-.035,19.256,19.256,0,1,0,10.437,0"
              transform="translate(0 -68.566)" />
        <path d="M508.431,16.593h3.5a.857.857,0,0,0,.854-.857V.855A.857.857,0,0,0,511.934,0h-3.5a.857.857,0,0,0-.854.857V15.737a.857.857,0,0,0,.854.857"
              transform="translate(-490.926 0.002)" />
    </g>
</svg>