<svg id="svg" fill="currentColor" xmlns="http://www.w3.org/2000/svg" viewBox="0, 0, 400,330.2325581395349">
    <path id="path0"
          d="M57.364 64.729 L 57.364 87.597 77.907 87.597 L 98.450 87.597 98.450 64.729 L 98.450 41.860 77.907 41.860 L 57.364 41.860 57.364 64.729 M197.674 64.729 L 197.674 87.597 218.217 87.597 L 238.760 87.597 238.760 64.729 L 238.760 41.860 218.217 41.860 L 197.674 41.860 197.674 64.729 M290.698 64.729 L 290.698 87.597 311.628 87.597 L 332.558 87.597 332.558 64.729 L 332.558 41.860 311.628 41.860 L 290.698 41.860 290.698 64.729 M337.984 64.729 L 337.984 87.597 358.527 87.597 L 379.070 87.597 379.070 64.729 L 379.070 41.860 358.527 41.860 L 337.984 41.860 337.984 64.729 M150.388 117.442 L 150.388 140.310 171.318 140.310 L 192.248 140.310 192.248 117.442 L 192.248 94.574 171.318 94.574 L 150.388 94.574 150.388 117.442 M244.186 117.442 L 244.186 140.310 265.116 140.310 L 286.047 140.310 286.047 117.442 L 286.047 94.574 265.116 94.574 L 244.186 94.574 244.186 117.442 M337.984 117.442 L 337.984 140.310 358.527 140.310 L 379.070 140.310 379.070 117.442 L 379.070 94.574 358.527 94.574 L 337.984 94.574 337.984 117.442 M10.078 169.767 L 10.078 193.023 31.008 193.023 L 51.938 193.023 51.938 169.767 L 51.938 146.512 31.008 146.512 L 10.078 146.512 10.078 169.767 M103.876 169.767 L 103.876 193.023 124.419 193.023 L 144.961 193.023 144.961 169.767 L 144.961 146.512 124.419 146.512 L 103.876 146.512 103.876 169.767 M197.674 169.767 L 197.674 193.023 218.217 193.023 L 238.760 193.023 238.760 169.767 L 238.760 146.512 218.217 146.512 L 197.674 146.512 197.674 169.767 M244.186 169.767 L 244.186 193.023 265.116 193.023 L 286.047 193.023 286.047 169.767 L 286.047 146.512 265.116 146.512 L 244.186 146.512 244.186 169.767 M290.880 169.574 L 291.085 192.636 311.822 192.842 L 332.558 193.049 332.558 169.780 L 332.558 146.512 311.616 146.512 L 290.675 146.512 290.880 169.574 M337.984 169.767 L 337.984 193.023 358.527 193.023 L 379.070 193.023 379.070 169.767 L 379.070 146.512 358.527 146.512 L 337.984 146.512 337.984 169.767 M57.364 222.093 L 57.364 244.961 77.907 244.961 L 98.450 244.961 98.450 222.093 L 98.450 199.225 77.907 199.225 L 57.364 199.225 57.364 222.093 M150.388 222.093 L 150.388 244.961 171.318 244.961 L 192.248 244.961 192.248 222.093 L 192.248 199.225 171.318 199.225 L 150.388 199.225 150.388 222.093 M244.186 222.093 L 244.186 244.961 265.116 244.961 L 286.047 244.961 286.047 222.093 L 286.047 199.225 265.116 199.225 L 244.186 199.225 244.186 222.093 M290.698 222.093 L 290.698 244.961 311.628 244.961 L 332.558 244.961 332.558 222.093 L 332.558 199.225 311.628 199.225 L 290.698 199.225 290.698 222.093 M337.984 222.093 L 337.984 244.961 358.527 244.961 L 379.070 244.961 379.070 222.093 L 379.070 199.225 358.527 199.225 L 337.984 199.225 337.984 222.093 M103.876 274.806 L 103.876 297.674 124.419 297.674 L 144.961 297.674 144.961 274.806 L 144.961 251.938 124.419 251.938 L 103.876 251.938 103.876 274.806 M150.388 274.806 L 150.388 297.674 171.318 297.674 L 192.248 297.674 192.248 274.806 L 192.248 251.938 171.318 251.938 L 150.388 251.938 150.388 274.806 M197.674 274.806 L 197.674 297.674 218.217 297.674 L 238.760 297.674 238.760 274.806 L 238.760 251.938 218.217 251.938 L 197.674 251.938 197.674 274.806 M244.186 274.806 L 244.186 297.674 265.116 297.674 L 286.047 297.674 286.047 274.806 L 286.047 251.938 265.116 251.938 L 244.186 251.938 244.186 274.806 M290.698 274.806 L 290.698 297.674 311.628 297.674 L 332.558 297.674 332.558 274.806 L 332.558 251.938 311.628 251.938 L 290.698 251.938 290.698 274.806 M337.984 274.806 L 337.984 297.674 358.527 297.674 L 379.070 297.674 379.070 274.806 L 379.070 251.938 358.527 251.938 L 337.984 251.938 337.984 274.806 "
          stroke="none" fill-rule="evenodd">

    </path>
</svg>