<?xml version="1.0" encoding="UTF-8"?>
<!DOCTYPE svg PUBLIC "-//W3C//DTD SVG 1.1//EN" "http://www.w3.org/Graphics/SVG/1.1/DTD/svg11.dtd">
<svg xmlns="http://www.w3.org/2000/svg" version="1.1" width="354px" height="472px" style="shape-rendering:geometricPrecision; text-rendering:geometricPrecision; image-rendering:optimizeQuality; fill-rule:evenodd; clip-rule:evenodd" xmlns:xlink="http://www.w3.org/1999/xlink">
<g><path style="opacity:1" fill="#fefffe" d="M 65.5,15.5 C 136.167,15.3333 206.834,15.5 277.5,16C 304.201,19.0346 319.368,33.8679 323,60.5C 323.667,175.833 323.667,291.167 323,406.5C 319.368,433.132 304.201,447.965 277.5,451C 206.833,451.667 136.167,451.667 65.5,451C 38.6667,447.5 23.5,432.333 20,405.5C 19.3333,290.833 19.3333,176.167 20,61.5C 23.6782,34.6556 38.8449,19.3223 65.5,15.5 Z M 64.5,25.5 C 135.834,25.3333 207.167,25.5 278.5,26C 296.888,30.0546 308.388,41.2212 313,59.5C 313.667,175.5 313.667,291.5 313,407.5C 308.388,425.779 296.888,436.945 278.5,441C 207.167,441.667 135.833,441.667 64.5,441C 45.6667,436.833 34.1667,425.333 30,406.5C 29.3333,291.167 29.3333,175.833 30,60.5C 34.3477,41.653 45.8477,29.9863 64.5,25.5 Z M 88.5,60.5 C 114.543,60.0461 140.543,60.5461 166.5,62C 178.737,65.9046 186.571,74.0713 190,86.5C 190.667,159.167 190.667,231.833 190,304.5C 187.446,316.72 180.279,324.887 168.5,329C 140.882,330.632 113.215,330.966 85.5,330C 72.1104,326.944 63.6104,318.777 60,305.5C 59.3333,232.5 59.3333,159.5 60,86.5C 64.2418,71.9782 73.7418,63.3115 88.5,60.5 Z M 218.5,62.5 C 235.837,62.3334 253.17,62.5001 270.5,63C 272.624,64.1217 274.457,65.6217 276,67.5C 277.638,84.4086 277.971,101.409 277,118.5C 275.878,120.624 274.378,122.457 272.5,124C 254.899,125.625 237.233,125.959 219.5,125C 216.804,124.31 214.637,122.81 213,120.5C 211.362,103.591 211.029,86.5914 212,69.5C 213.694,66.6424 215.861,64.309 218.5,62.5 Z M 221.5,141.5 C 237.837,141.333 254.17,141.5 270.5,142C 274.573,143.072 277.407,145.572 279,149.5C 279.667,165.167 279.667,180.833 279,196.5C 278.117,199.102 276.617,201.269 274.5,203C 256.566,204.626 238.566,204.959 220.5,204C 216.23,202.73 213.73,199.896 213,195.5C 212.333,180.5 212.333,165.5 213,150.5C 214.688,146.315 217.521,143.315 221.5,141.5 Z M 222.5,223.5 C 238.17,223.333 253.837,223.5 269.5,224C 273.066,224.7 275.9,226.533 278,229.5C 279.622,245.766 279.955,262.1 279,278.5C 277.308,283.522 273.808,286.355 268.5,287C 252.121,287.923 235.788,287.59 219.5,286C 216.272,284.437 214.105,281.937 213,278.5C 212.333,263.167 212.333,247.833 213,232.5C 214.775,227.888 217.942,224.888 222.5,223.5 Z M 59.5,363.5 C 128.833,363.5 198.167,363.5 267.5,363.5C 267.5,377.5 267.5,391.5 267.5,405.5C 198.167,405.5 128.833,405.5 59.5,405.5C 59.5,391.5 59.5,377.5 59.5,363.5 Z"/></g>
<g><path style="opacity:1" fill="#fefffe" d="M 82.5,53.5 C 112.542,53.0396 142.542,53.5396 172.5,55C 183.934,58.7674 191.767,66.2674 196,77.5C 197.655,155.123 197.988,232.789 197,310.5C 193.5,324.667 184.667,333.5 170.5,337C 140.167,337.667 109.833,337.667 79.5,337C 66.9157,334.08 58.4157,326.58 54,314.5C 52.3451,236.544 52.0118,158.544 53,80.5C 57.6593,65.6674 67.4926,56.6674 82.5,53.5 Z M 88.5,60.5 C 73.7418,63.3115 64.2418,71.9782 60,86.5C 59.3333,159.5 59.3333,232.5 60,305.5C 63.6104,318.777 72.1104,326.944 85.5,330C 113.215,330.966 140.882,330.632 168.5,329C 180.279,324.887 187.446,316.72 190,304.5C 190.667,231.833 190.667,159.167 190,86.5C 186.571,74.0713 178.737,65.9046 166.5,62C 140.543,60.5461 114.543,60.0461 88.5,60.5 Z"/></g>
<g><path style="opacity:1" fill="#fefffe" d="M 213.5,55.5 C 234.169,55.3334 254.836,55.5 275.5,56C 278.562,57.0608 281.062,58.8941 283,61.5C 284.643,82.4109 284.977,103.411 284,124.5C 282.108,128.058 279.275,130.558 275.5,132C 254.833,132.667 234.167,132.667 213.5,132C 210.438,130.939 207.938,129.106 206,126.5C 204.357,105.589 204.023,84.5891 205,63.5C 207.074,59.9231 209.907,57.2565 213.5,55.5 Z M 218.5,62.5 C 215.861,64.309 213.694,66.6424 212,69.5C 211.029,86.5914 211.362,103.591 213,120.5C 214.637,122.81 216.804,124.31 219.5,125C 237.233,125.959 254.899,125.625 272.5,124C 274.378,122.457 275.878,120.624 277,118.5C 277.971,101.409 277.638,84.4086 276,67.5C 274.457,65.6217 272.624,64.1217 270.5,63C 253.17,62.5001 235.837,62.3334 218.5,62.5 Z"/></g>
<g><path style="opacity:1" fill="#fefffe" d="M 215.5,134.5 C 235.836,134.333 256.169,134.5 276.5,135C 281.667,136.167 284.833,139.333 286,144.5C 286.667,163.833 286.667,183.167 286,202.5C 284.5,206.667 281.667,209.5 277.5,211C 256.5,211.667 235.5,211.667 214.5,211C 209.938,209.373 207.105,206.206 206,201.5C 205.333,182.5 205.333,163.5 206,144.5C 208.022,139.98 211.189,136.647 215.5,134.5 Z M 221.5,141.5 C 217.521,143.315 214.688,146.315 213,150.5C 212.333,165.5 212.333,180.5 213,195.5C 213.73,199.896 216.23,202.73 220.5,204C 238.566,204.959 256.566,204.626 274.5,203C 276.617,201.269 278.117,199.102 279,196.5C 279.667,180.833 279.667,165.167 279,149.5C 277.407,145.572 274.573,143.072 270.5,142C 254.17,141.5 237.837,141.333 221.5,141.5 Z"/></g>
<g><path style="opacity:1" fill="#fefffe" d="M 217.5,216.5 C 236.503,216.333 255.503,216.5 274.5,217C 280.127,217.957 283.96,221.124 286,226.5C 286.667,245.833 286.667,265.167 286,284.5C 283.96,289.876 280.127,293.043 274.5,294C 255.5,294.667 236.5,294.667 217.5,294C 211.447,292.947 207.613,289.447 206,283.5C 205.333,264.833 205.333,246.167 206,227.5C 207.789,221.541 211.622,217.875 217.5,216.5 Z M 222.5,223.5 C 217.942,224.888 214.775,227.888 213,232.5C 212.333,247.833 212.333,263.167 213,278.5C 214.105,281.937 216.272,284.437 219.5,286C 235.788,287.59 252.121,287.923 268.5,287C 273.808,286.355 277.308,283.522 279,278.5C 279.955,262.1 279.622,245.766 278,229.5C 275.9,226.533 273.066,224.7 269.5,224C 253.837,223.5 238.17,223.333 222.5,223.5 Z"/></g>
<g><path style="opacity:1" fill="#fefffe" d="M 52.5,356.5 C 126.5,356.5 200.5,356.5 274.5,356.5C 274.5,375.167 274.5,393.833 274.5,412.5C 200.5,412.5 126.5,412.5 52.5,412.5C 52.5,393.833 52.5,375.167 52.5,356.5 Z M 59.5,363.5 C 59.5,377.5 59.5,391.5 59.5,405.5C 128.833,405.5 198.167,405.5 267.5,405.5C 267.5,391.5 267.5,377.5 267.5,363.5C 198.167,363.5 128.833,363.5 59.5,363.5 Z"/></g>
</svg>
