<?xml version="1.0" encoding="UTF-8"?>
<!DOCTYPE svg PUBLIC "-//W3C//DTD SVG 1.1//EN" "http://www.w3.org/Graphics/SVG/1.1/DTD/svg11.dtd">
<svg xmlns="http://www.w3.org/2000/svg" version="1.1"  style="shape-rendering:geometricPrecision; text-rendering:geometricPrecision; image-rendering:optimizeQuality; fill-rule:evenodd; clip-rule:evenodd" xmlns:xlink="http://www.w3.org/1999/xlink">
<g><path style="opacity:0.721" fill="#191a17" d="M 67.5,21.5 C 136.834,21.3333 206.167,21.5 275.5,22C 302.201,25.0346 317.368,39.8679 321,66.5C 321.667,180.5 321.667,294.5 321,408.5C 317.368,435.132 302.201,449.965 275.5,453C 206.167,453.667 136.833,453.667 67.5,453C 40.6667,449.5 25.5,434.333 22,407.5C 21.3333,294.167 21.3333,180.833 22,67.5C 25.6782,40.6556 40.8449,25.3223 67.5,21.5 Z M 62.5,27.5 C 135.167,27.3333 207.834,27.5 280.5,28C 298.888,32.0546 310.388,43.2212 315,61.5C 315.667,178.833 315.667,296.167 315,413.5C 310.388,431.779 298.888,442.945 280.5,447C 207.833,447.667 135.167,447.667 62.5,447C 43.6667,442.833 32.1667,431.333 28,412.5C 27.3333,295.833 27.3333,179.167 28,62.5C 32.3477,43.653 43.8477,31.9863 62.5,27.5 Z M 86.5,62.5 C 113.876,62.0437 141.209,62.5437 168.5,64C 180.737,67.9046 188.571,76.0713 192,88.5C 192.667,162.5 192.667,236.5 192,310.5C 189.446,322.72 182.279,330.887 170.5,335C 141.548,336.634 112.548,336.967 83.5,336C 70.1104,332.944 61.6104,324.777 58,311.5C 57.3333,237.167 57.3333,162.833 58,88.5C 62.2418,73.9782 71.7418,65.3115 86.5,62.5 Z M 216.5,64.5 C 235.17,64.3334 253.836,64.5001 272.5,65C 274.624,66.1217 276.457,67.6217 278,69.5C 279.64,87.7428 279.973,106.076 279,124.5C 277.878,126.624 276.378,128.457 274.5,130C 255.565,131.628 236.565,131.962 217.5,131C 214.804,130.31 212.637,128.81 211,126.5C 209.36,108.257 209.027,89.9239 210,71.5C 211.694,68.6424 213.861,66.309 216.5,64.5 Z M 219.5,143.5 C 237.17,143.333 254.836,143.5 272.5,144C 276.573,145.072 279.407,147.572 281,151.5C 281.667,168.5 281.667,185.5 281,202.5C 280.117,205.102 278.617,207.269 276.5,209C 257.232,210.629 237.898,210.962 218.5,210C 214.23,208.73 211.73,205.896 211,201.5C 210.333,185.167 210.333,168.833 211,152.5C 212.688,148.315 215.521,145.315 219.5,143.5 Z M 220.5,225.5 C 237.503,225.333 254.503,225.5 271.5,226C 275.066,226.7 277.9,228.533 280,231.5C 281.625,249.101 281.959,266.767 281,284.5C 279.308,289.522 275.808,292.355 270.5,293C 252.789,293.93 235.122,293.596 217.5,292C 214.272,290.437 212.105,287.937 211,284.5C 210.333,267.833 210.333,251.167 211,234.5C 212.775,229.888 215.942,226.888 220.5,225.5 Z M 57.5,365.5 C 128.167,365.5 198.833,365.5 269.5,365.5C 269.5,380.833 269.5,396.167 269.5,411.5C 198.833,411.5 128.167,411.5 57.5,411.5C 57.5,396.167 57.5,380.833 57.5,365.5 Z"/></g>
<g><path style="opacity:0.692" fill="#191a17" d="M 84.5,59.5 C 113.209,59.0415 141.876,59.5415 170.5,61C 181.934,64.7674 189.767,72.2674 194,83.5C 195.655,159.789 195.988,236.123 195,312.5C 191.5,326.667 182.667,335.5 168.5,339C 139.5,339.667 110.5,339.667 81.5,339C 68.9157,336.08 60.4157,328.58 56,316.5C 54.3453,239.877 54.012,163.211 55,86.5C 59.6593,71.6674 69.4926,62.6674 84.5,59.5 Z M 86.5,62.5 C 71.7418,65.3115 62.2418,73.9782 58,88.5C 57.3333,162.833 57.3333,237.167 58,311.5C 61.6104,324.777 70.1104,332.944 83.5,336C 112.548,336.967 141.548,336.634 170.5,335C 182.279,330.887 189.446,322.72 192,310.5C 192.667,236.5 192.667,162.5 192,88.5C 188.571,76.0713 180.737,67.9046 168.5,64C 141.209,62.5437 113.876,62.0437 86.5,62.5 Z"/></g>
<g><path style="opacity:0.7" fill="#191a17" d="M 215.5,61.5 C 234.836,61.3334 254.17,61.5 273.5,62C 276.562,63.0608 279.062,64.8941 281,67.5C 282.642,87.0769 282.975,106.744 282,126.5C 280.108,130.058 277.275,132.558 273.5,134C 254.167,134.667 234.833,134.667 215.5,134C 212.438,132.939 209.938,131.106 208,128.5C 206.358,108.923 206.025,89.2564 207,69.5C 209.074,65.9231 211.907,63.2565 215.5,61.5 Z M 216.5,64.5 C 213.861,66.309 211.694,68.6424 210,71.5C 209.027,89.9239 209.36,108.257 211,126.5C 212.637,128.81 214.804,130.31 217.5,131C 236.565,131.962 255.565,131.628 274.5,130C 276.378,128.457 277.878,126.624 279,124.5C 279.973,106.076 279.64,87.7428 278,69.5C 276.457,67.6217 274.624,66.1217 272.5,65C 253.836,64.5001 235.17,64.3334 216.5,64.5 Z"/></g>
<g><path style="opacity:0.936" fill="#191a17" d="M 403.5,74.5 C 408.179,74.3342 412.845,74.5008 417.5,75C 419.815,76.1094 421.315,77.9427 422,80.5C 435,118.833 448,157.167 461,195.5C 474.717,156.348 488.051,117.015 501,77.5C 501.772,76.1509 502.939,75.3176 504.5,75C 509.871,74.3239 515.204,74.4905 520.5,75.5C 520.663,77.8568 520.497,80.1902 520,82.5C 504.469,126.091 489.136,169.758 474,213.5C 473.167,215.667 471.667,217.167 469.5,218C 462.962,218.775 456.462,218.609 450,217.5C 448.523,216.556 447.523,215.223 447,213.5C 431.667,170.167 416.333,126.833 401,83.5C 400.503,80.854 400.336,78.1873 400.5,75.5C 401.791,75.7373 402.791,75.404 403.5,74.5 Z"/></g>
<g><path style="opacity:0.94" fill="#191a17" d="M 1141.5,74.5 C 1146.54,74.0616 1151.37,74.7283 1156,76.5C 1156.67,123.167 1156.67,169.833 1156,216.5C 1153.07,218.038 1149.91,218.704 1146.5,218.5C 1144.17,218.333 1141.83,218.167 1139.5,218C 1138.33,217.5 1137.5,216.667 1137,215.5C 1136.33,169.5 1136.33,123.5 1137,77.5C 1138.41,76.2189 1139.91,75.2189 1141.5,74.5 Z"/></g>
<g><path style="opacity:0.931" fill="#191a17" d="M 1590.5,74.5 C 1595.51,74.3341 1600.51,74.5007 1605.5,75C 1606.77,75.3095 1607.93,75.8095 1609,76.5C 1619.08,94.3309 1629.41,111.998 1640,129.5C 1650,112.167 1660,94.8333 1670,77.5C 1672.83,75.039 1676.16,74.039 1680,74.5C 1683.53,74.3571 1686.87,75.0237 1690,76.5C 1690.48,78.9129 1690.15,81.2462 1689,83.5C 1676.71,103.917 1664.54,124.417 1652.5,145C 1666.09,168.187 1679.43,191.52 1692.5,215C 1692.24,216.261 1691.57,217.261 1690.5,218C 1684.83,218.667 1679.17,218.667 1673.5,218C 1672.07,217.535 1670.9,216.701 1670,215.5C 1659.67,196.833 1649.33,178.167 1639,159.5C 1628.08,178.338 1617.41,197.338 1607,216.5C 1606.25,217.126 1605.42,217.626 1604.5,218C 1598.58,218.807 1592.75,218.641 1587,217.5C 1585.72,214.866 1586.06,212.199 1588,209.5C 1600.77,188.293 1613.27,166.96 1625.5,145.5C 1613.57,124.394 1601.4,103.394 1589,82.5C 1586.54,79.0963 1587.04,76.4296 1590.5,74.5 Z"/></g>
<g><path style="opacity:0.935" fill="#191a17" d="M 597.5,75.5 C 621.842,75.1669 646.176,75.5003 670.5,76.5C 672.764,81.1098 672.93,85.7765 671,90.5C 670.25,91.1258 669.416,91.6258 668.5,92C 643.497,92.4361 618.497,92.2695 593.5,91.5C 593.334,87.1539 593.501,82.8206 594,78.5C 595.145,77.3636 596.312,76.3636 597.5,75.5 Z"/></g>
<g><path style="opacity:0.953" fill="#191a17" d="M 757.5,75.5 C 764.175,75.3337 770.842,75.5004 777.5,76C 779.587,76.7922 781.421,77.9588 783,79.5C 803.097,115.358 822.431,151.691 841,188.5C 841.333,151.5 841.667,114.5 842,77.5C 842.5,77 843,76.5 843.5,76C 848.833,75.3333 854.167,75.3333 859.5,76C 860,76.5 860.5,77 861,77.5C 861.989,123.25 861.656,168.917 860,214.5C 856.88,217.708 853.046,219.041 848.5,218.5C 842.992,218.72 838.158,217.053 834,213.5C 812.904,176.312 792.57,138.645 773,100.5C 772.5,139.499 772.333,178.499 772.5,217.5C 766.167,218.833 759.833,218.833 753.5,217.5C 753.333,171.499 753.5,125.499 754,79.5C 754.69,77.6498 755.856,76.3164 757.5,75.5 Z"/></g>
<g><path style="opacity:0.944" fill="#191a17" d="M 952.5,75.5 C 971.204,75.0959 989.87,75.5959 1008.5,77C 1039.43,84.6107 1055.93,104.444 1058,136.5C 1060.27,157.901 1055.61,177.568 1044,195.5C 1032.9,207.803 1019.06,214.97 1002.5,217C 985.5,217.667 968.5,217.667 951.5,217C 950.667,216.167 949.833,215.333 949,214.5C 948.5,188.835 948.333,163.169 948.5,137.5C 955.167,137.5 961.833,137.5 968.5,137.5C 968.5,158.833 968.5,180.167 968.5,201.5C 1021.72,206.449 1044.22,182.449 1036,129.5C 1031.79,109.293 1019.63,97.1268 999.5,93C 982.521,91.8054 965.521,91.3054 948.5,91.5C 948.334,87.4862 948.501,83.4862 949,79.5C 949.69,77.6498 950.856,76.3164 952.5,75.5 Z"/></g>
<g><path style="opacity:0.938" fill="#191a17" d="M 1248.5,75.5 C 1254.84,75.3338 1261.18,75.5005 1267.5,76C 1271.15,77.0764 1273.98,79.2431 1276,82.5C 1295.18,117.517 1313.84,152.85 1332,188.5C 1332.17,151.162 1332.67,113.829 1333.5,76.5C 1338.78,75.3822 1344.11,75.2155 1349.5,76C 1350.31,76.3076 1350.97,76.8076 1351.5,77.5C 1352.66,122.125 1352.83,166.792 1352,211.5C 1351.65,213.848 1350.49,215.681 1348.5,217C 1342.18,218.947 1335.85,218.947 1329.5,217C 1327.39,215.859 1325.56,214.359 1324,212.5C 1303.49,175.485 1283.49,138.151 1264,100.5C 1263.67,139.167 1263.33,177.833 1263,216.5C 1260.07,218.038 1256.91,218.704 1253.5,218.5C 1251.17,218.333 1248.83,218.167 1246.5,218C 1245.69,217.692 1245.03,217.192 1244.5,216.5C 1243.34,172.208 1243.17,127.875 1244,83.5C 1243.76,79.7329 1245.26,77.0662 1248.5,75.5 Z"/></g>
<g><path style="opacity:0.923" fill="#191a17" d="M 1443.5,75.5 C 1467.84,75.3334 1492.17,75.5 1516.5,76C 1518.94,80.7254 1519.11,85.5587 1517,90.5C 1516.25,91.1258 1515.42,91.6258 1514.5,92C 1489.46,91.8823 1464.46,92.049 1439.5,92.5C 1439.33,88.1539 1439.5,83.8206 1440,79.5C 1440.69,77.6498 1441.86,76.3164 1443.5,75.5 Z"/></g>
<g><path style="opacity:0.941" fill="#191a17" d="M 1855.5,77.5 C 1855.5,81.8333 1855.5,86.1667 1855.5,90.5C 1854.71,90.7828 1854.04,91.2828 1853.5,92C 1839.84,92.4999 1826.17,92.6666 1812.5,92.5C 1812.67,133.835 1812.5,175.168 1812,216.5C 1809.07,218.038 1805.91,218.704 1802.5,218.5C 1799.09,218.704 1795.93,218.038 1793,216.5C 1792.5,175.168 1792.33,133.835 1792.5,92.5C 1778.83,92.6666 1765.16,92.4999 1751.5,92C 1749.49,87.3911 1748.99,82.5577 1750,77.5C 1750.5,77 1751,76.5 1751.5,76C 1768.67,75.8333 1785.83,75.6667 1803,75.5C 1820.72,75.5136 1838.22,76.1802 1855.5,77.5 Z"/></g>
<g><path style="opacity:0.026" fill="#191a17" d="M 1456.5,104.5 C 1457.25,103.427 1458.25,103.26 1459.5,104C 1458.55,104.483 1457.55,104.649 1456.5,104.5 Z"/></g>
<g><path style="opacity:0.938" fill="#191a17" d="M 594.5,135.5 C 617.169,135.333 639.836,135.5 662.5,136C 665.076,141.017 665.076,146.017 662.5,151C 639.502,151.5 616.502,151.667 593.5,151.5C 593.218,146.073 593.551,140.74 594.5,135.5 Z"/></g>
<g><path style="opacity:0.928" fill="#191a17" d="M 1439.5,135.5 C 1462.5,135.333 1485.5,135.5 1508.5,136C 1511.17,141 1511.17,146 1508.5,151C 1485.5,151.5 1462.5,151.667 1439.5,151.5C 1439.5,146.167 1439.5,140.833 1439.5,135.5 Z"/></g>
<g><path style="opacity:0.692" fill="#191a17" d="M 217.5,140.5 C 236.503,140.333 255.503,140.5 274.5,141C 279.667,142.167 282.833,145.333 284,150.5C 284.667,168.5 284.667,186.5 284,204.5C 282.5,208.667 279.667,211.5 275.5,213C 255.833,213.667 236.167,213.667 216.5,213C 211.938,211.373 209.105,208.206 208,203.5C 207.333,185.833 207.333,168.167 208,150.5C 210.022,145.98 213.189,142.647 217.5,140.5 Z M 219.5,143.5 C 215.521,145.315 212.688,148.315 211,152.5C 210.333,168.833 210.333,185.167 211,201.5C 211.73,205.896 214.23,208.73 218.5,210C 237.898,210.962 257.232,210.629 276.5,209C 278.617,207.269 280.117,205.102 281,202.5C 281.667,185.5 281.667,168.5 281,151.5C 279.407,147.572 276.573,145.072 272.5,144C 254.836,143.5 237.17,143.333 219.5,143.5 Z"/></g>
<g><path style="opacity:0.966" fill="#191a17" d="M 604.5,201.5 C 626.843,201.167 649.177,201.5 671.5,202.5C 672.833,207.167 672.833,211.833 671.5,216.5C 646.507,217.666 621.507,217.833 596.5,217C 595.333,216.5 594.5,215.667 594,214.5C 593.501,210.514 593.334,206.514 593.5,202.5C 597.371,202.815 601.038,202.482 604.5,201.5 Z"/></g>
<g><path style="opacity:0.957" fill="#191a17" d="M 1439.5,201.5 C 1465.5,201.333 1491.5,201.5 1517.5,202C 1520.17,207 1520.17,212 1517.5,217C 1492.5,217.667 1467.5,217.667 1442.5,217C 1441.67,216.167 1440.83,215.333 1440,214.5C 1439.5,210.179 1439.33,205.846 1439.5,201.5 Z"/></g>
<g><path style="opacity:0.685" fill="#191a17" d="M 219.5,222.5 C 237.17,222.333 254.836,222.5 272.5,223C 278.127,223.957 281.96,227.124 284,232.5C 284.667,250.5 284.667,268.5 284,286.5C 281.96,291.876 278.127,295.043 272.5,296C 254.833,296.667 237.167,296.667 219.5,296C 213.447,294.947 209.613,291.447 208,285.5C 207.333,268.167 207.333,250.833 208,233.5C 209.789,227.541 213.622,223.875 219.5,222.5 Z M 220.5,225.5 C 215.942,226.888 212.775,229.888 211,234.5C 210.333,251.167 210.333,267.833 211,284.5C 212.105,287.937 214.272,290.437 217.5,292C 235.122,293.596 252.789,293.93 270.5,293C 275.808,292.355 279.308,289.522 281,284.5C 281.959,266.767 281.625,249.101 280,231.5C 277.9,228.533 275.066,226.7 271.5,226C 254.503,225.5 237.503,225.333 220.5,225.5 Z"/></g>
<g><path style="opacity:0.9" fill="#191a17" d="M 741.5,279.5 C 742.93,279.421 744.264,279.754 745.5,280.5C 746.328,284.796 746.828,289.129 747,293.5C 747.667,315.5 747.667,337.5 747,359.5C 742.923,363.412 738.423,366.745 733.5,369.5C 733.167,369 732.833,368.5 732.5,368C 734.797,344.864 734.964,321.697 733,298.5C 733.494,292.998 730.994,290.498 725.5,291C 730.724,286.9 736.057,283.067 741.5,279.5 Z"/></g>
<g><path style="opacity:0.92" fill="#191a17" d="M 613.5,288.5 C 627.858,287.431 641.525,289.931 654.5,296C 671.324,307.778 675.824,323.278 668,342.5C 659.099,355.9 646.932,364.9 631.5,369.5C 624.098,368.482 616.765,367.149 609.5,365.5C 610.904,344.511 611.237,323.511 610.5,302.5C 606.221,301.726 601.887,301.226 597.5,301C 601.167,297.333 604.833,293.667 608.5,290C 610.382,289.802 612.048,289.302 613.5,288.5 Z M 627.5,302.5 C 652.644,307.435 662.144,322.435 656,347.5C 653.463,353.029 649.129,355.696 643,355.5C 637.611,355.242 632.444,354.075 627.5,352C 626.874,351.25 626.374,350.416 626,349.5C 625.898,333.764 626.398,318.098 627.5,302.5 Z"/></g>
<g><path style="opacity:0.817" fill="#191a17" d="M 768.5,295.5 C 772.313,296.63 775.313,298.963 777.5,302.5C 773.946,307.111 769.28,309.277 763.5,309C 761.289,307.418 759.955,305.251 759.5,302.5C 762.31,299.928 765.31,297.594 768.5,295.5 Z"/></g>
<g><path style="opacity:0.817" fill="#191a17" d="M 847.5,295.5 C 851.313,296.63 854.313,298.963 856.5,302.5C 852.946,307.111 848.28,309.277 842.5,309C 840.289,307.418 838.955,305.251 838.5,302.5C 841.31,299.928 844.31,297.594 847.5,295.5 Z"/></g>
<g><path style="opacity:0.822" fill="#191a17" d="M 1370.5,295.5 C 1374.31,296.63 1377.31,298.963 1379.5,302.5C 1376.2,307.649 1371.54,309.816 1365.5,309C 1363.34,307.355 1362,305.188 1361.5,302.5C 1364.64,300.343 1367.64,298.01 1370.5,295.5 Z"/></g>
<g><path style="opacity:0.91" fill="#191a17" d="M 1206.5,311.5 C 1208.45,311.227 1209.95,311.893 1211,313.5C 1212.31,338.489 1212.65,363.489 1212,388.5C 1207.97,391.364 1203.8,394.031 1199.5,396.5C 1199.54,373.503 1198.71,350.503 1197,327.5C 1194.69,325.184 1191.86,323.85 1188.5,323.5C 1194.29,319.018 1200.29,315.018 1206.5,311.5 Z"/></g>
<g><path style="opacity:0.878" fill="#191a17" d="M 1231.5,311.5 C 1237.94,312.438 1242.11,316.104 1244,322.5C 1249.23,334.743 1247.07,345.243 1237.5,354C 1232.13,358.183 1226.13,361.017 1219.5,362.5C 1219.28,361.325 1219.61,360.325 1220.5,359.5C 1229.48,356.199 1233.31,349.866 1232,340.5C 1231.41,333.818 1228.58,328.318 1223.5,324C 1220.21,323.064 1217.21,323.564 1214.5,325.5C 1213.5,325.167 1212.83,324.5 1212.5,323.5C 1218.39,318.576 1224.72,314.576 1231.5,311.5 Z"/></g>
<g><path style="opacity:0.875" fill="#191a17" d="M 701.5,313.5 C 708.375,312.523 714.208,314.523 719,319.5C 719.667,322.167 719.667,324.833 719,327.5C 714.779,331.689 710.279,335.522 705.5,339C 703.44,340.696 701.107,341.863 698.5,342.5C 697.833,342.167 697.167,341.833 696.5,341.5C 700.212,338.789 703.212,335.456 705.5,331.5C 700.639,321.944 695.139,321.277 689,329.5C 688.813,344.655 696.146,353.988 711,357.5C 713.196,356.91 715.362,356.243 717.5,355.5C 717.833,355.833 718.167,356.167 718.5,356.5C 713.483,362.865 707.15,367.198 699.5,369.5C 685.81,366.807 678.476,358.474 677.5,344.5C 677.644,334.713 681.644,326.88 689.5,321C 693.428,318.21 697.428,315.71 701.5,313.5 Z"/></g>
<g><path style="opacity:0.879" fill="#191a17" d="M 807.5,313.5 C 812.599,313.175 817.599,313.675 822.5,315C 825.792,317.412 826.959,320.579 826,324.5C 822.667,327.167 819.333,329.833 816,332.5C 813.141,325.329 807.974,322.163 800.5,323C 798.333,323.833 796.833,325.333 796,327.5C 795.111,341.637 801.278,351.471 814.5,357C 818.241,357.502 821.908,357.502 825.5,357C 809.937,374.73 796.437,373.23 785,352.5C 782.212,343.499 783.545,335.166 789,327.5C 793.956,321.02 800.123,316.353 807.5,313.5 Z"/></g>
<g><path style="opacity:0.887" fill="#191a17" d="M 889.5,313.5 C 906.267,316.991 913.1,327.324 910,344.5C 909.275,346.949 908.275,349.283 907,351.5C 902.825,356.376 898.325,360.876 893.5,365C 880.004,372.724 869.837,369.558 863,355.5C 860.568,346.484 862.735,338.984 869.5,333C 871.791,330.66 874.458,329.327 877.5,329C 873.224,341.284 876.557,350.95 887.5,358C 894.811,360.357 898.477,357.69 898.5,350C 897.919,340.239 893.919,332.239 886.5,326C 882.389,324.109 878.056,323.109 873.5,323C 878.434,319.038 883.767,315.871 889.5,313.5 Z"/></g>
<g><path style="opacity:0.893" fill="#191a17" d="M 933.5,313.5 C 935.113,313.944 936.28,314.944 937,316.5C 938.294,326.891 939.961,337.224 942,347.5C 944.892,350.082 947.725,349.916 950.5,347C 957.396,340.708 961.229,332.875 962,323.5C 965.902,320.132 970.069,317.132 974.5,314.5C 976.044,328.784 977.044,343.118 977.5,357.5C 977.392,358.442 977.059,359.275 976.5,360C 971.884,362.56 967.718,365.727 964,369.5C 962.117,359.692 961.117,349.692 961,339.5C 955.36,349.813 948.194,358.979 939.5,367C 936.725,369.916 933.892,370.082 931,367.5C 929.844,363.877 928.844,360.211 928,356.5C 926.885,346.801 925.552,337.134 924,327.5C 921.925,325.352 919.592,325.018 917,326.5C 916.833,326 916.667,325.5 916.5,325C 921.891,320.647 927.557,316.814 933.5,313.5 Z"/></g>
<g><path style="opacity:0.873" fill="#191a17" d="M 1102.5,313.5 C 1109.38,312.523 1115.21,314.523 1120,319.5C 1120.67,322.167 1120.67,324.833 1120,327.5C 1115.78,331.689 1111.28,335.522 1106.5,339C 1104.44,340.696 1102.11,341.863 1099.5,342.5C 1098.07,342.267 1097.57,341.6 1098,340.5C 1101.69,338.308 1104.53,335.308 1106.5,331.5C 1102.14,322.391 1096.64,321.391 1090,328.5C 1089.33,344.143 1096.67,353.81 1112,357.5C 1114.51,356.137 1117.01,355.804 1119.5,356.5C 1114.48,362.865 1108.15,367.198 1100.5,369.5C 1082.23,364.693 1075.39,353.026 1080,334.5C 1085.13,324.868 1092.63,317.868 1102.5,313.5 Z"/></g>
<g><path style="opacity:0.867" fill="#191a17" d="M 1144.5,313.5 C 1146.31,313.771 1147.98,314.438 1149.5,315.5C 1153.86,321.362 1158.03,327.362 1162,333.5C 1170.28,329.081 1170.28,325.081 1162,321.5C 1161.31,320.668 1161.48,320.002 1162.5,319.5C 1165.65,316.838 1169.15,314.838 1173,313.5C 1178.88,314.038 1181.88,317.038 1182,322.5C 1175.92,327.454 1169.76,332.287 1163.5,337C 1167.52,344.704 1172.52,351.704 1178.5,358C 1179.94,358.219 1181.27,358.719 1182.5,359.5C 1179.65,362.188 1176.65,364.688 1173.5,367C 1171.3,368.373 1168.97,368.706 1166.5,368C 1161.31,360.971 1156.31,353.805 1151.5,346.5C 1141.17,351.589 1141.17,356.422 1151.5,361C 1147.68,364.079 1143.68,366.912 1139.5,369.5C 1135.07,367.971 1130.9,365.971 1127,363.5C 1126.46,361.433 1126.96,359.599 1128.5,358C 1136.08,353.383 1143.08,348.05 1149.5,342C 1145.6,335.428 1140.93,329.428 1135.5,324C 1133.56,323.257 1131.73,323.424 1130,324.5C 1129.32,323.216 1129.48,322.049 1130.5,321C 1135.13,318.155 1139.79,315.655 1144.5,313.5 Z"/></g>
<g><path style="opacity:0.874" fill="#191a17" d="M 1276.5,313.5 C 1284.83,312.498 1291.16,315.498 1295.5,322.5C 1294.61,326.902 1292.28,330.402 1288.5,333C 1283.88,336.796 1278.88,339.962 1273.5,342.5C 1272.83,342.333 1272.17,342.167 1271.5,342C 1275.06,338.942 1278.06,335.442 1280.5,331.5C 1275.64,321.944 1270.14,321.277 1264,329.5C 1263.81,344.655 1271.15,353.988 1286,357.5C 1288.2,356.91 1290.36,356.243 1292.5,355.5C 1292.83,355.833 1293.17,356.167 1293.5,356.5C 1288.48,362.865 1282.15,367.198 1274.5,369.5C 1260.81,366.807 1253.48,358.474 1252.5,344.5C 1252.64,334.713 1256.64,326.88 1264.5,321C 1268.43,318.21 1272.43,315.71 1276.5,313.5 Z"/></g>
<g><path style="opacity:0.879" fill="#191a17" d="M 1319.5,313.5 C 1320.83,313.5 1322.17,313.5 1323.5,313.5C 1323.88,318.323 1324.71,322.989 1326,327.5C 1330.85,321.475 1336.68,316.809 1343.5,313.5C 1347.96,316.71 1349.79,321.043 1349,326.5C 1345.66,329.18 1342.32,331.847 1339,334.5C 1337.29,332.273 1335.46,330.106 1333.5,328C 1329.59,328.224 1327.09,330.391 1326,334.5C 1325.65,342.849 1325.65,351.183 1326,359.5C 1322.38,363.907 1317.88,367.24 1312.5,369.5C 1311.67,359.183 1311.17,348.849 1311,338.5C 1310.46,335.471 1309.79,332.471 1309,329.5C 1308.5,328.333 1307.67,327.5 1306.5,327C 1304.41,327.218 1302.41,327.051 1300.5,326.5C 1306.6,321.721 1312.93,317.387 1319.5,313.5 Z"/></g>
<g><path style="opacity:0.873" fill="#191a17" d="M 1409.5,313.5 C 1414.95,312.826 1419.95,313.992 1424.5,317C 1428.44,319.813 1429.27,323.313 1427,327.5C 1425.17,329.333 1423.33,331.167 1421.5,333C 1416.88,336.796 1411.88,339.962 1406.5,342.5C 1405.83,342.333 1405.17,342.167 1404.5,342C 1408.06,338.942 1411.06,335.442 1413.5,331.5C 1408.64,321.944 1403.14,321.277 1397,329.5C 1396.81,344.655 1404.15,353.988 1419,357.5C 1421.2,356.91 1423.36,356.243 1425.5,355.5C 1425.83,355.833 1426.17,356.167 1426.5,356.5C 1415.41,372.495 1403.24,373.495 1390,359.5C 1382.14,344.662 1384.64,331.828 1397.5,321C 1401.43,318.21 1405.43,315.71 1409.5,313.5 Z"/></g>
<g><path style="opacity:0.895" fill="#191a17" d="M 1449.5,313.5 C 1451.53,313.338 1453.53,313.505 1455.5,314C 1456.13,314.75 1456.63,315.584 1457,316.5C 1457.78,324.153 1458.28,331.819 1458.5,339.5C 1459.55,339.649 1460.55,339.483 1461.5,339C 1467.48,331.017 1474.15,323.683 1481.5,317C 1484.22,314.924 1487.22,314.257 1490.5,315C 1491.7,315.903 1492.53,317.069 1493,318.5C 1495.99,332.712 1497.65,347.045 1498,361.5C 1493.83,363.919 1489.83,366.585 1486,369.5C 1484.9,358.344 1482.9,347.344 1480,336.5C 1477.36,333.053 1474.2,332.553 1470.5,335C 1460.8,344.86 1452.46,355.693 1445.5,367.5C 1444.45,366.562 1443.78,365.395 1443.5,364C 1445.05,352.089 1444.55,340.255 1442,328.5C 1441.69,327.234 1441.19,326.067 1440.5,325C 1438,324.843 1435.67,324.676 1433.5,324.5C 1438.85,320.808 1444.18,317.141 1449.5,313.5 Z"/></g>
<g><path style="opacity:0.877" fill="#191a17" d="M 1527.5,313.5 C 1531.85,313.334 1536.18,313.501 1540.5,314C 1546.03,316.214 1547.86,320.048 1546,325.5C 1542.64,327.35 1539.64,329.683 1537,332.5C 1534.5,328.667 1531.33,325.5 1527.5,323C 1518.04,322.475 1514.2,326.975 1516,336.5C 1520.91,350.965 1530.74,357.965 1545.5,357.5C 1530.59,374.348 1517.42,373.014 1506,353.5C 1502.16,338.646 1506.66,326.813 1519.5,318C 1522.39,316.726 1525.06,315.226 1527.5,313.5 Z"/></g>
<g><path style="opacity:0.875" fill="#191a17" d="M 1576.5,313.5 C 1585.08,312.122 1591.42,315.122 1595.5,322.5C 1594.61,326.905 1592.27,330.405 1588.5,333C 1583.88,336.796 1578.88,339.962 1573.5,342.5C 1572.83,342.333 1572.17,342.167 1571.5,342C 1574.33,339.167 1577.17,336.333 1580,333.5C 1580.63,331.365 1580.3,329.365 1579,327.5C 1574.25,322.299 1569.58,322.299 1565,327.5C 1562.72,339.451 1566.89,348.617 1577.5,355C 1582.53,357.39 1587.53,357.557 1592.5,355.5C 1592.83,355.833 1593.17,356.167 1593.5,356.5C 1578.95,374.439 1565.78,373.439 1554,353.5C 1550.23,338.159 1555.06,326.326 1568.5,318C 1571.1,316.205 1573.77,314.705 1576.5,313.5 Z"/></g>
<g><path style="opacity:0.914" fill="#191a17" d="M 767.5,314.5 C 769.467,314.261 771.301,314.594 773,315.5C 773.667,330.833 773.667,346.167 773,361.5C 769,364.167 765,366.833 761,369.5C 760.701,355.481 760.034,341.481 759,327.5C 757.509,325.996 755.676,325.163 753.5,325C 757.785,320.867 762.452,317.367 767.5,314.5 Z"/></g>
<g><path style="opacity:0.908" fill="#191a17" d="M 846.5,314.5 C 848.467,314.261 850.301,314.594 852,315.5C 852.667,330.833 852.667,346.167 852,361.5C 847.828,363.919 843.828,366.585 840,369.5C 839.546,355.49 838.88,341.49 838,327.5C 836.4,326.134 834.567,325.134 832.5,324.5C 836.93,320.721 841.597,317.388 846.5,314.5 Z"/></g>
<g><path style="opacity:0.87" fill="#191a17" d="M 1005.5,314.5 C 1010.45,313.959 1015.12,314.792 1019.5,317C 1021.79,319.048 1021.95,321.215 1020,323.5C 1017.51,325.743 1014.85,327.743 1012,329.5C 1007.9,324.688 1002.73,322.855 996.5,324C 995.643,324.689 994.977,325.522 994.5,326.5C 995.624,327.914 996.624,329.414 997.5,331C 1004.76,333.916 1012.09,336.583 1019.5,339C 1020.33,339.833 1021.17,340.667 1022,341.5C 1022.67,344.833 1022.67,348.167 1022,351.5C 1015.91,359.272 1008.41,365.106 999.5,369C 991.137,370.66 985.804,367.494 983.5,359.5C 983.667,358.5 983.833,357.5 984,356.5C 987.082,354.375 990.249,352.375 993.5,350.5C 997.286,357.06 1002.95,359.893 1010.5,359C 1012.77,355.403 1012.11,352.07 1008.5,349C 1002.38,346.374 996.047,344.374 989.5,343C 987.714,342.215 986.214,341.049 985,339.5C 984.333,336.5 984.333,333.5 985,330.5C 991.161,324.157 997.994,318.824 1005.5,314.5 Z"/></g>
<g><path style="opacity:0.935" fill="#191a17" d="M 1370.5,314.5 C 1372.14,314.286 1373.64,314.62 1375,315.5C 1375.67,330.833 1375.67,346.167 1375,361.5C 1371,364.167 1367,366.833 1363,369.5C 1362.67,355.833 1362.33,342.167 1362,328.5C 1360.49,326.234 1358.32,325.068 1355.5,325C 1359.9,320.481 1364.9,316.981 1370.5,314.5 Z"/></g>
<g><path style="opacity:0.711" fill="#191a17" d="M 54.5,362.5 C 127.167,362.5 199.833,362.5 272.5,362.5C 272.5,379.833 272.5,397.167 272.5,414.5C 199.833,414.5 127.167,414.5 54.5,414.5C 54.5,397.167 54.5,379.833 54.5,362.5 Z M 57.5,365.5 C 57.5,380.833 57.5,396.167 57.5,411.5C 128.167,411.5 198.833,411.5 269.5,411.5C 269.5,396.167 269.5,380.833 269.5,365.5C 198.833,365.5 128.167,365.5 57.5,365.5 Z"/></g>
</svg>
